# xmcd
#
# Track frame offsets:
#	150
#	9369
#	20128
#	33689
#	46257
#	55984
#	65646
#	78772
#	91747
#	102236
#	115691
#	128798
#	140431
#	153455
#	167394
#	179625
#	190300
#	202952
#	213345
#	223186
#	236700
#	246544
#	257104
#	266880
#	280349
#	294126
#	306792
#
# Disc length: 4249 seconds
#
# Revision: 4
# Processed by: cddbd v1.5.2PL0 Copyright (c) Steve Scherf et al.
# Submitted via: EasyCDDAExtractor 12.0.5.1
#
DISCID=8f10971b
DTITLE=Merle Haggard - Untamed Hawk [CD 2]
DYEAR=1995
DGENRE=Country
TTITLE0=I'll Take A Chance (& Bonnie Owens) - 1965
TTITLE1=Our Hearts Are Holding Hands (& Bonnie Owens) - 1965
TTITLE2=Too Used To Being With You (& Bonnie Owens) - 1965
TTITLE3=That Makes Two Of Us (& Bonnie Owens) - 1965
TTITLE4=Forever And Ever (& Bonnie Owens) - 1965
TTITLE5=Wait A Little Longer Please Jesus (W Bonnie Owens) - 1965
TTITLE6=Swinging Doors - 1966
TTITLE7=Swinging Doors (Alt) - 1993
TTITLE8=The Girl Turned Ripe - 1966
TTITLE9=I Threw Away The Rose - 1995
TTITLE10=The Fugitive - 1995
TTITLE11=Loneliness Is Eating Me Alive - 1995
TTITLE12=Someone Told My Story - 1995
TTITLE13=I Threw Away The Rose - 1995
TTITLE14=Hang Up My Gloves - 1995
TTITLE15=The Longer You Wait - 1966
TTITLE16=The Bottle Let Me Down - 1966
TTITLE17=I Can't Stand Me - 1966
TTITLE18=Someone Else You've Known - 1966
TTITLE19=High On A Hilltop - 1966
TTITLE20=I'll Look Over You - 1966
TTITLE21=No More You And Me - 1966
TTITLE22=Mixed Up Mess Of A Heart - 1966
TTITLE23=I'm A Lonesome Fugitive - 1966
TTITLE24=Life In Prison - 1966
TTITLE25=House Of Memories - 1966
TTITLE26=All Of You Belongs To Me - 1966
EXTD=
EXTT0=
EXTT1=
EXTT2=
EXTT3=
EXTT4=
EXTT5=
EXTT6=
EXTT7=
EXTT8=
EXTT9=
EXTT10=
EXTT11=
EXTT12=
EXTT13=
EXTT14=
EXTT15=
EXTT16=
EXTT17=
EXTT18=
EXTT19=
EXTT20=
EXTT21=
EXTT22=
EXTT23=
EXTT24=
EXTT25=
EXTT26=
PLAYORDER=
